<?xml version="1.0" encoding="utf-8"?>
<!-- Generator: Adobe Illustrator 16.0.0, SVG Export Plug-In . SVG Version: 6.00 Build 0)  -->
<!DOCTYPE svg PUBLIC "-//W3C//DTD SVG 1.1//EN" "http://www.w3.org/Graphics/SVG/1.1/DTD/svg11.dtd">
<svg version="1.1" id="Capa_1" xmlns="http://www.w3.org/2000/svg" xmlns:xlink="http://www.w3.org/1999/xlink" x="0px" y="0px"
	 width="237.056px" height="221.656px" viewBox="2 0 237.056 221.656" enable-background="new 2 0 237.056 221.656"
	 xml:space="preserve">
<g id="fondo" display="none">
	<rect x="-88.102" y="-84.348" display="inline" fill="#EA5B0C" width="798" height="958"/>
</g>
<g id="Capa_5">
</g>
<g id="Capa_5_copia">
	<polygon display="none" fill="#FFFFFF" points="121.609,3.652 215.116,58.46 215.116,164.32 122.802,217.986 29.449,164.32 
		29.449,58.46 	"/>
	<g>
		<path fill="#FFFFFF" d="M155.947,161.441c0.368,0.111,0.579,0.496,0.477,0.875l-0.472,1.506c-0.112,0.375-0.511,0.586-0.879,0.465
			l-10.32-3.156c-0.368-0.104-0.574-0.49-0.458-0.859l0.458-1.516c0.113-0.373,0.506-0.574,0.874-0.469L155.947,161.441z"/>
		<path fill="#FFFFFF" d="M153.604,146.232c0.362,0.121,0.573,0.506,0.464,0.879l-3.155,10.318c-0.113,0.363-0.5,0.574-0.874,0.463
			l-1.507-0.459c-0.368-0.109-0.579-0.506-0.463-0.879l3.148-10.322c0.104-0.363,0.495-0.568,0.874-0.465L153.604,146.232z"/>
		<path fill="#FFFFFF" d="M153.714,156.375c-0.368-0.117-0.579-0.506-0.463-0.885l0.458-1.502c0.118-0.369,0.5-0.584,0.879-0.463
			l10.312,3.145c0.379,0.117,0.585,0.51,0.464,0.885l-0.453,1.492c-0.113,0.373-0.511,0.578-0.885,0.477L153.714,156.375z"/>
		<path fill="#FFFFFF" d="M162.562,141.47c0.368,0.107,0.573,0.492,0.464,0.875l-3.154,10.311c-0.108,0.379-0.506,0.59-0.866,0.469
			l-1.51-0.453c-0.365-0.117-0.59-0.512-0.474-0.879l3.153-10.32c0.108-0.367,0.495-0.578,0.869-0.467L162.562,141.47z"/>
		<path fill="#FFFFFF" d="M170.004,136.24l1.512,0.465c0.368,0.109,0.579,0.5,0.47,0.873l-3.155,10.318
			c-0.062,0.184-0.179,0.332-0.337,0.416c-0.163,0.084-0.354,0.107-0.523,0.047l-1.52-0.463c-0.369-0.111-0.58-0.496-0.464-0.875
			l3.148-10.312c0.054-0.184,0.174-0.33,0.337-0.42C169.63,136.209,169.82,136.187,170.004,136.24"/>
		<path fill="#FFFFFF" d="M172.99,154.763l-10.32-3.16c-0.363-0.109-0.579-0.51-0.466-0.873l0.472-1.512
			c0.053-0.189,0.185-0.326,0.332-0.412c0.154-0.084,0.354-0.109,0.528-0.057l10.328,3.15c0.363,0.115,0.579,0.506,0.464,0.879
			l-0.469,1.512c-0.048,0.184-0.181,0.326-0.332,0.416C173.368,154.791,173.18,154.816,172.99,154.763"/>
		<path fill="#FFFFFF" d="M171.631,146.836c-0.379-0.105-0.579-0.5-0.472-0.865l0.467-1.516c0.107-0.373,0.506-0.578,0.874-0.469
			l10.314,3.156c0.369,0.105,0.58,0.506,0.469,0.873l-0.469,1.506c-0.104,0.375-0.495,0.586-0.869,0.465L171.631,146.836z"/>
		<path fill="#FFFFFF" d="M180.474,131.937c0.374,0.107,0.574,0.506,0.459,0.869l-3.146,10.314
			c-0.107,0.379-0.506,0.584-0.866,0.473l-1.52-0.459c-0.363-0.115-0.579-0.514-0.464-0.873l3.154-10.324
			c0.107-0.367,0.486-0.578,0.86-0.469L180.474,131.937z"/>
		<path fill="#FFFFFF" d="M190.906,145.226l-10.319-3.15c-0.374-0.115-0.58-0.506-0.467-0.879l0.467-1.506
			c0.058-0.189,0.179-0.344,0.348-0.422c0.168-0.104,0.349-0.115,0.548-0.062l10.312,3.156c0.374,0.104,0.585,0.5,0.464,0.873
			l-0.464,1.506c-0.056,0.189-0.182,0.332-0.345,0.416C191.285,145.256,191.086,145.279,190.906,145.226"/>
		<path fill="#FFFFFF" d="M187.943,126.687l1.512,0.475c0.368,0.115,0.573,0.5,0.466,0.869l-3.148,10.322
			c-0.062,0.188-0.194,0.332-0.358,0.42c-0.146,0.09-0.348,0.107-0.534,0.049l-1.52-0.453c-0.363-0.115-0.574-0.506-0.458-0.875
			l3.146-10.312c0.062-0.195,0.188-0.342,0.354-0.416C187.563,126.666,187.746,126.644,187.943,126.687"/>
		<path fill="#FFFFFF" d="M189.559,137.299c-0.362-0.117-0.578-0.512-0.463-0.879l0.47-1.508c0.109-0.379,0.5-0.574,0.862-0.469
			l10.328,3.15c0.36,0.111,0.571,0.506,0.458,0.879l-0.458,1.506c-0.116,0.375-0.506,0.58-0.874,0.465L189.559,137.299z"/>
		<path fill="#FFFFFF" d="M198.406,122.39c0.374,0.105,0.579,0.504,0.472,0.873l-3.155,10.318c-0.121,0.369-0.5,0.58-0.874,0.465
			l-1.506-0.459c-0.38-0.117-0.58-0.51-0.472-0.875l3.154-10.312c0.109-0.373,0.506-0.584,0.862-0.475L198.406,122.39z"/>
		<path fill="#FFFFFF" d="M89.193,160.715c-0.369,0.092-0.597,0.473-0.495,0.852l0.395,1.523c0.099,0.373,0.473,0.598,0.854,0.5
			l10.443-2.693c0.374-0.104,0.593-0.479,0.5-0.857l-0.396-1.521c-0.098-0.379-0.472-0.605-0.854-0.506L89.193,160.715z"/>
		<path fill="#FFFFFF" d="M92.192,145.621c-0.368,0.096-0.594,0.479-0.5,0.854l2.698,10.445c0.104,0.375,0.484,0.605,0.854,0.51
			l1.53-0.4c0.376-0.094,0.604-0.475,0.506-0.854l-2.705-10.453c-0.092-0.369-0.475-0.594-0.854-0.496L92.192,145.621z"/>
		<path fill="#FFFFFF" d="M91.644,155.744c0.37-0.102,0.604-0.479,0.506-0.854l-0.396-1.533c-0.104-0.363-0.48-0.604-0.854-0.494
			l-10.447,2.701c-0.379,0.096-0.604,0.479-0.5,0.842l0.396,1.527c0.101,0.385,0.475,0.604,0.854,0.506L91.644,155.744z"/>
		<path fill="#FFFFFF" d="M83.45,140.47c-0.371,0.1-0.604,0.479-0.508,0.848l2.704,10.459c0.104,0.369,0.479,0.596,0.854,0.49
			l1.526-0.389c0.38-0.094,0.605-0.48,0.506-0.854l-2.696-10.455c-0.095-0.363-0.48-0.596-0.854-0.494L83.45,140.47z"/>
		<path fill="#FFFFFF" d="M76.234,134.918l-1.521,0.4c-0.377,0.1-0.604,0.479-0.511,0.854l2.707,10.449
			c0.045,0.184,0.163,0.332,0.321,0.422c0.154,0.104,0.342,0.121,0.522,0.074l1.538-0.391c0.373-0.104,0.593-0.484,0.492-0.857
			l-2.691-10.439c-0.05-0.195-0.168-0.348-0.325-0.438C76.617,134.908,76.426,134.881,76.234,134.918"/>
		<path fill="#FFFFFF" d="M72.453,153.289l10.447-2.688c0.373-0.104,0.601-0.49,0.511-0.854l-0.4-1.533
			c-0.05-0.188-0.166-0.338-0.32-0.426c-0.158-0.09-0.346-0.127-0.534-0.08l-10.441,2.703c-0.374,0.102-0.601,0.475-0.503,0.854
			l0.397,1.523c0.045,0.195,0.166,0.338,0.312,0.439C72.072,153.304,72.265,153.336,72.453,153.289"/>
		<path fill="#FFFFFF" d="M74.162,145.441c0.372-0.094,0.599-0.479,0.498-0.854l-0.397-1.523c-0.087-0.379-0.469-0.605-0.851-0.506
			l-10.44,2.697c-0.383,0.1-0.604,0.484-0.509,0.855l0.402,1.52c0.096,0.389,0.478,0.605,0.854,0.516L74.162,145.441z"/>
		<path fill="#FFFFFF" d="M65.964,130.168c-0.369,0.104-0.588,0.479-0.498,0.857l2.701,10.443c0.096,0.381,0.478,0.596,0.849,0.502
			l1.535-0.396c0.376-0.1,0.602-0.484,0.505-0.854l-2.703-10.443c-0.096-0.379-0.473-0.6-0.852-0.506L65.964,130.168z"/>
		<path fill="#FFFFFF" d="M54.967,142.992l10.454-2.695c0.363-0.107,0.602-0.479,0.503-0.855l-0.396-1.527
			c-0.056-0.188-0.18-0.348-0.339-0.432c-0.15-0.104-0.341-0.127-0.543-0.084l-10.446,2.707c-0.36,0.084-0.602,0.475-0.495,0.848
			l0.396,1.527c0.054,0.188,0.175,0.342,0.334,0.428C54.587,143.002,54.781,143.035,54.967,142.992"/>
		<path fill="#FFFFFF" d="M58.74,124.607l-1.529,0.396c-0.374,0.098-0.596,0.477-0.501,0.854l2.699,10.449
			c0.047,0.188,0.171,0.336,0.334,0.432c0.158,0.09,0.349,0.127,0.537,0.078l1.526-0.389c0.374-0.104,0.599-0.49,0.507-0.854
			l-2.704-10.455c-0.048-0.188-0.178-0.342-0.332-0.426C59.118,124.601,58.927,124.564,58.74,124.607"/>
		<path fill="#FFFFFF" d="M56.656,135.129c0.374-0.1,0.601-0.48,0.503-0.854l-0.396-1.527c-0.092-0.369-0.479-0.6-0.857-0.512
			l-10.44,2.703c-0.371,0.104-0.601,0.48-0.506,0.854l0.402,1.537c0.09,0.363,0.475,0.6,0.843,0.5L56.656,135.129z"/>
		<path fill="#FFFFFF" d="M48.47,119.857c-0.379,0.088-0.603,0.48-0.505,0.852l2.701,10.445c0.087,0.383,0.475,0.604,0.854,0.51
			l1.526-0.396c0.376-0.105,0.602-0.484,0.503-0.854l-2.702-10.449c-0.103-0.365-0.48-0.602-0.848-0.5L48.47,119.857z"/>
	</g>
	<g>
		<g>
			<g>
				<polygon id="SVGID_1_" display="none" fill="#FFFFFF" points="35.088,55.493 23.7,97.958 109.722,150.629 137.113,150.629 
					219.516,99.522 197.444,54.428 				"/>
			</g>
			<path fill="#FFFFFF" d="M183.976,121.564c0.292-31.251-22.869-58.594-54.607-62.684c-34.263-4.416-65.73,19.88-70.142,54.148
				c-0.276,2.139-0.439,4.268-0.496,6.377l3.567,2.186c-0.032-2.674,0.11-5.379,0.461-8.107c0.289-2.212,0.711-4.355,1.209-6.452
				l53.993,14.235l-38.896,10.59l2.076,1.271l37.292-10.154l-20.366,20.518l1.574,0.963l20.05-20.207l-6.958,26.381h1.854
				l6.824-25.928l7.067,25.928h1.836l-7.202-26.406l21.772,21.586l1.563-0.969l-22.045-21.877l40.222,10.604l2.078-1.289
				l-41.855-11.02l53.738-14.653c1.412,5.505,2.036,11.29,1.763,17.21L183.976,121.564z M64.466,105.307
				c2.652-9.651,7.646-18.193,14.298-25.099l39.646,39.336L64.466,105.307z M80.01,78.94c6.945-6.836,15.494-11.919,24.967-14.663
				l14.688,54.004L80.01,78.94z M121.379,117.812l-14.692-53.979c7.066-1.832,14.545-2.405,22.232-1.421
				c2.282,0.31,4.531,0.759,6.732,1.322L121.379,117.812z M137.37,64.219c9.64,2.707,18.172,7.759,25.038,14.437l-39.281,39.583
				L137.37,64.219z M124.368,119.513l39.3-39.62c6.782,6.94,11.808,15.536,14.505,24.975L124.368,119.513z"/>
		</g>
	</g>
	<g>
		<path fill="#FFFFFF" d="M50.245,112.447c0.061-1.222,1.751-30.39,31.432-50.261l2.799,4.182
			c-27.493,18.396-29.191,46.046-29.206,46.325L50.245,112.447z"/>
		<path fill="#FFFFFF" d="M186.05,115.047c0-0.275-0.801-27.96-27.691-47.247l2.928-4.077c29.03,20.812,29.778,50.018,29.802,51.24
			L186.05,115.047z"/>
		<path fill="#FFFFFF" d="M122.954,221.656l-96.057-55.285L26.742,55.55L122.65,0l96.054,55.276l0.158,110.833L122.954,221.656z
			 M32.954,162.863l89.989,51.793l89.853-52.035L212.647,58.79l-89.99-51.793l-89.85,52.035L32.954,162.863z"/>
	</g>
</g>
<g id="Capa_6_copia">
	<g>
		<g>
			<g>
				<path fill="#FFFFFF" d="M89.494,61.637c1.161-0.643,1.748-0.941,2.934-1.521c0.316,0.479,0.479,0.715,0.794,1.193
					c-1.958,0.944-2.923,1.465-4.816,2.585c-1.375-2.327-2.062-3.489-3.438-5.815c0.776-0.46,1.17-0.684,1.96-1.118
					C87.951,58.833,88.467,59.768,89.494,61.637z"/>
				<path fill="#FFFFFF" d="M94.6,53.161c0.816-0.33,1.584-0.459,2.292-0.396c0.708,0.062,1.309,0.295,1.8,0.686
					c0.49,0.391,0.836,0.897,1.043,1.512c0.22,0.653,0.254,1.29,0.114,1.909c-0.139,0.619-0.438,1.169-0.887,1.657
					c-0.451,0.488-1.021,0.868-1.726,1.152c-0.724,0.293-1.41,0.419-2.075,0.376c-0.662-0.043-1.258-0.23-1.775-0.572
					c-0.521-0.342-0.922-0.802-1.2-1.389c-0.294-0.616-0.398-1.244-0.301-1.889c0.1-0.641,0.384-1.231,0.854-1.771
					C93.213,53.9,93.836,53.47,94.6,53.161z M94.166,57.181c0.23,0.53,0.576,0.899,1.025,1.109c0.45,0.21,0.938,0.205,1.465-0.01
					c0.512-0.206,0.863-0.533,1.065-0.989c0.203-0.456,0.194-0.988-0.034-1.604c-0.201-0.54-0.528-0.922-0.987-1.145
					c-0.459-0.218-0.968-0.218-1.516,0.007c-0.341,0.139-0.617,0.344-0.827,0.611c-0.209,0.272-0.334,0.585-0.375,0.938
					C93.946,56.458,94.007,56.816,94.166,57.181z"/>
				<path fill="#FFFFFF" d="M101.355,57.587c0.084-0.6,0.129-0.896,0.224-1.501c0.229,0.04,0.521,0.054,0.891,0.034
					c0.366-0.017,0.678-0.062,0.936-0.135c0.287-0.082,0.501-0.198,0.646-0.354c0.145-0.149,0.199-0.293,0.166-0.421
					c-0.021-0.083-0.106-0.146-0.256-0.189c-0.15-0.046-0.389-0.104-0.715-0.168c-0.152-0.03-0.23-0.045-0.389-0.075
					c-0.57-0.111-1.021-0.203-1.354-0.285s-0.648-0.218-0.957-0.411c-0.31-0.19-0.52-0.458-0.625-0.791
					c-0.115-0.353-0.102-0.708,0.051-1.062c0.147-0.357,0.419-0.687,0.811-0.979c0.395-0.292,0.887-0.521,1.478-0.688
					c0.401-0.113,0.832-0.183,1.281-0.194c0.447-0.015,0.847,0.028,1.188,0.122c-0.137,0.536-0.2,0.803-0.327,1.34
					c-0.434-0.013-0.766-0.008-0.993,0.012c-0.228,0.021-0.471,0.065-0.729,0.141c-0.229,0.062-0.399,0.163-0.516,0.292
					c-0.114,0.13-0.152,0.258-0.115,0.385c0.025,0.095,0.108,0.162,0.249,0.201c0.138,0.039,0.356,0.081,0.664,0.127
					c0.185,0.031,0.271,0.049,0.457,0.081c0.532,0.101,0.979,0.21,1.345,0.326c0.362,0.112,0.687,0.279,0.969,0.498
					c0.281,0.215,0.462,0.487,0.541,0.822c0.088,0.374,0.047,0.734-0.12,1.08c-0.167,0.351-0.444,0.658-0.839,0.938
					c-0.393,0.28-0.873,0.498-1.449,0.662c-0.372,0.104-0.802,0.177-1.291,0.216C102.08,57.648,101.676,57.643,101.355,57.587z"/>
				<path fill="#FFFFFF" d="M114.701,51.857c-0.364,0.534-0.546,0.802-0.896,1.34c-0.32,0.078-0.479,0.117-0.799,0.199
					c-0.561-0.464-0.845-0.692-1.418-1.146c0.191,1.293,0.291,1.939,0.482,3.231c-0.784,0.117-1.175,0.181-1.956,0.323
					c-0.479-2.658-0.721-3.987-1.203-6.646c0.595-0.104,0.891-0.159,1.481-0.253c1.135,0.861,1.685,1.305,2.754,2.208
					c0.735-1.129,1.121-1.69,1.922-2.799c0.577-0.054,0.866-0.078,1.443-0.121c0.198,2.695,0.297,4.043,0.493,6.737
					c-0.789,0.058-1.185,0.091-1.972,0.172C114.904,53.806,114.838,53.158,114.701,51.857z"/>
				<path fill="#FFFFFF" d="M122.03,47.864c0.862,0.002,1.61,0.172,2.231,0.498s1.083,0.767,1.387,1.312
					c0.303,0.551,0.429,1.146,0.389,1.793c-0.042,0.688-0.249,1.289-0.604,1.812c-0.357,0.521-0.833,0.919-1.425,1.201
					c-0.595,0.282-1.253,0.419-1.996,0.417c-0.768-0.002-1.438-0.146-2.021-0.438s-1.053-0.688-1.396-1.204
					c-0.343-0.514-0.539-1.092-0.574-1.736c-0.037-0.685,0.102-1.306,0.427-1.858c0.324-0.556,0.8-0.998,1.428-1.314
					C120.496,48.022,121.222,47.862,122.03,47.864z M120.15,51.42c0.014,0.583,0.189,1.059,0.521,1.42
					c0.331,0.365,0.771,0.549,1.333,0.551c0.539,0.001,0.979-0.168,1.336-0.519c0.354-0.346,0.545-0.846,0.562-1.501
					c0.02-0.576-0.14-1.052-0.477-1.427s-0.798-0.568-1.378-0.57c-0.359-0.001-0.688,0.084-0.979,0.256
					c-0.291,0.176-0.521,0.415-0.688,0.729C120.217,50.668,120.14,51.022,120.15,51.42z"/>
				<path fill="#FFFFFF" d="M129.143,53.737c1.275,0.14,1.91,0.225,3.18,0.426c-0.016,0.573-0.021,0.861-0.038,1.437
					c-2.097-0.342-3.15-0.469-5.266-0.637c0.216-2.688,0.323-4.039,0.536-6.729c0.869,0.065,1.303,0.105,2.169,0.205
					C129.491,50.556,129.376,51.617,129.143,53.737z"/>
				<path fill="#FFFFFF" d="M136.571,49.519c-0.548,2.646-0.826,3.969-1.378,6.609c-0.774-0.158-1.165-0.233-1.945-0.375
					c0.475-2.656,0.707-3.985,1.178-6.647C135.282,49.258,135.715,49.341,136.571,49.519z"/>
				<path fill="#FFFFFF" d="M139.745,53.562c-0.365,1.374-0.552,2.061-0.921,3.434c-0.77-0.206-1.151-0.304-1.928-0.482
					c0.622-2.632,0.934-3.943,1.552-6.574c0.792,0.187,1.188,0.285,1.977,0.495c0.847,1.738,1.231,2.615,1.941,4.377
					c0.438-1.399,0.658-2.102,1.098-3.498c0.84,0.263,1.26,0.398,2.093,0.688c-0.884,2.557-1.331,3.829-2.218,6.38
					c-0.706-0.241-1.062-0.358-1.771-0.586C140.904,56.095,140.54,55.247,139.745,53.562z"/>
				<path fill="#FFFFFF" d="M150.824,53.912c0.81,0.354,1.439,0.812,1.896,1.364s0.71,1.145,0.774,1.771
					c0.067,0.626-0.051,1.229-0.345,1.808c-0.312,0.61-0.744,1.083-1.288,1.415s-1.146,0.502-1.812,0.521
					c-0.666,0.021-1.342-0.126-2.035-0.429c-0.715-0.312-1.281-0.713-1.713-1.216c-0.434-0.503-0.71-1.06-0.824-1.665
					c-0.116-0.61-0.067-1.225,0.155-1.831c0.232-0.645,0.608-1.155,1.135-1.535c0.523-0.379,1.141-0.593,1.852-0.633
					C149.328,53.438,150.071,53.583,150.824,53.912z M147.656,56.415c-0.218,0.54-0.237,1.046-0.077,1.519
					c0.163,0.469,0.508,0.812,1.029,1.041c0.504,0.22,0.984,0.238,1.454,0.064c0.469-0.173,0.848-0.555,1.126-1.146
					c0.244-0.521,0.284-1.023,0.117-1.505c-0.167-0.482-0.521-0.85-1.062-1.082c-0.336-0.147-0.677-0.199-1.017-0.158
					s-0.649,0.17-0.931,0.389C148.02,55.753,147.805,56.046,147.656,56.415z"/>
				<path fill="#FFFFFF" d="M152.416,61.848c0.487-0.358,0.737-0.533,1.236-0.887c0.132,0.191,0.333,0.41,0.605,0.664
					c0.271,0.253,0.527,0.448,0.77,0.584c0.268,0.151,0.502,0.229,0.716,0.229c0.216-0.002,0.354-0.062,0.425-0.173
					c0.044-0.074,0.024-0.186-0.05-0.321c-0.071-0.138-0.2-0.354-0.39-0.634c-0.091-0.138-0.135-0.201-0.225-0.334
					c-0.328-0.49-0.585-0.882-0.765-1.182c-0.177-0.295-0.308-0.622-0.387-0.979c-0.079-0.357-0.039-0.691,0.123-1.002
					c0.172-0.329,0.438-0.567,0.799-0.708c0.363-0.144,0.794-0.173,1.283-0.094c0.488,0.077,1.008,0.271,1.55,0.588
					c0.372,0.215,0.728,0.479,1.062,0.8c0.334,0.316,0.591,0.634,0.771,0.95c-0.482,0.271-0.728,0.412-1.205,0.688
					c-0.303-0.322-0.545-0.562-0.724-0.714c-0.178-0.149-0.388-0.296-0.625-0.434c-0.21-0.122-0.4-0.182-0.575-0.171
					c-0.178,0.007-0.3,0.063-0.363,0.183c-0.049,0.086-0.034,0.195,0.034,0.322c0.069,0.127,0.199,0.313,0.384,0.566
					c0.109,0.155,0.164,0.232,0.271,0.392c0.312,0.458,0.556,0.857,0.729,1.207c0.18,0.344,0.288,0.693,0.341,1.053
					c0.05,0.356-0.021,0.678-0.204,0.968c-0.206,0.324-0.496,0.545-0.866,0.664s-0.798,0.129-1.281,0.038
					c-0.479-0.091-0.984-0.289-1.519-0.593c-0.346-0.196-0.701-0.458-1.079-0.785C152.888,62.415,152.604,62.118,152.416,61.848z"/>
			</g>
		</g>
		<g enable-background="new    ">
			<path fill="#FFFFFF" d="M116.868,158.568l-1.104,1.488l-0.876,0.117l-1.32-1.605v3.947h-2.184v-8.16h1.5l2.46,3.105l2.256-3.105
				h1.452v8.16h-2.187L116.868,158.568L116.868,158.568z"/>
			<path fill="#FFFFFF" d="M120.133,154.355h6.981l0.203,1.717h-2.604v6.443h-2.187v-6.443h-2.397L120.133,154.355L120.133,154.355z
				"/>
			<path fill="#FFFFFF" d="M131.484,162.515H128.4v-8.16h2.844c0.972,0,1.771,0.197,2.406,0.588
				c0.637,0.393,0.954,0.979,0.954,1.766c0,0.287-0.068,0.547-0.204,0.779c-0.137,0.232-0.32,0.465-0.552,0.695
				c0.336,0.23,0.602,0.512,0.798,0.84c0.195,0.328,0.294,0.682,0.294,1.057c0,0.863-0.326,1.486-0.978,1.865
				C133.31,162.326,132.484,162.515,131.484,162.515z M131.172,156.072h-0.588v1.379h0.489c0.36,0,0.662-0.053,0.906-0.16
				c0.244-0.105,0.366-0.268,0.366-0.475c0-0.24-0.104-0.424-0.312-0.553C131.825,156.136,131.541,156.072,131.172,156.072z
				 M131.508,159.168h-0.924v1.635h0.945c0.354,0,0.632-0.066,0.841-0.197c0.207-0.133,0.312-0.322,0.312-0.57
				c0-0.271-0.104-0.482-0.312-0.637C132.163,159.244,131.877,159.168,131.508,159.168z"/>
		</g>
		<g enable-background="new    ">
			<path fill="#FFFFFF" d="M114.337,164.873l-0.648,1.479c-0.424-0.146-0.75-0.24-0.978-0.289c-0.229-0.047-0.479-0.072-0.75-0.072
				c-0.328,0-0.645,0.105-0.942,0.312c-0.3,0.209-0.544,0.5-0.732,0.877c-0.188,0.377-0.279,0.805-0.279,1.281
				c0,0.488,0.096,0.916,0.288,1.283c0.189,0.369,0.443,0.65,0.762,0.848c0.313,0.197,0.646,0.297,0.99,0.297
				c0.533,0,1.052-0.148,1.548-0.445l0.828,1.633c-0.312,0.186-0.69,0.33-1.137,0.438c-0.441,0.105-0.878,0.16-1.302,0.16
				c-0.864,0-1.616-0.178-2.256-0.531c-0.64-0.355-1.13-0.854-1.47-1.482c-0.34-0.631-0.51-1.359-0.51-2.184
				c0-0.826,0.18-1.562,0.537-2.209c0.36-0.648,0.858-1.154,1.494-1.52c0.639-0.363,1.354-0.547,2.154-0.547
				c0.416,0,0.842,0.062,1.278,0.18C113.65,164.5,114.025,164.664,114.337,164.873z"/>
			<path fill="#FFFFFF" d="M117.685,170.801h3.468l0.204,1.719h-5.854v-8.16h2.184L117.685,170.801L117.685,170.801z"/>
			<path fill="#FFFFFF" d="M122.316,164.355h2.187v4.934c0,0.496,0.137,0.881,0.405,1.156c0.272,0.277,0.629,0.414,1.068,0.414
				c0.438,0,0.796-0.137,1.068-0.414c0.271-0.275,0.405-0.66,0.405-1.156v-4.934h2.187v5.041c0,0.693-0.152,1.289-0.456,1.781
				c-0.304,0.49-0.731,0.863-1.284,1.119c-0.552,0.26-1.191,0.387-1.92,0.387c-0.729,0-1.368-0.127-1.92-0.387
				c-0.553-0.256-0.98-0.629-1.284-1.119c-0.304-0.492-0.456-1.088-0.456-1.781V164.355L122.316,164.355z"/>
			<path fill="#FFFFFF" d="M134.52,172.515h-3.084v-8.16h2.845c0.967,0,1.771,0.197,2.405,0.588
				c0.636,0.393,0.954,0.979,0.954,1.766c0,0.287-0.068,0.547-0.204,0.779s-0.319,0.465-0.552,0.695
				c0.336,0.23,0.602,0.512,0.798,0.84s0.294,0.682,0.294,1.057c0,0.863-0.326,1.486-0.979,1.865
				C136.347,172.326,135.52,172.515,134.52,172.515z M134.209,166.072h-0.591v1.379h0.492c0.359,0,0.661-0.053,0.905-0.16
				c0.244-0.105,0.366-0.268,0.366-0.475c0-0.24-0.104-0.424-0.312-0.553C134.862,166.136,134.575,166.072,134.209,166.072z
				 M134.545,169.168h-0.927v1.635h0.947c0.354,0,0.632-0.066,0.84-0.197c0.209-0.133,0.312-0.322,0.312-0.57
				c0-0.271-0.104-0.482-0.312-0.637C135.198,169.244,134.911,169.168,134.545,169.168z"/>
		</g>
		<g enable-background="new    ">
			<path fill="#FFFFFF" d="M227.807,113.963v10.189h-3.275v-6.535l-2.088,0.9l-1.275-2.627l4.464-1.93L227.807,113.963
				L227.807,113.963z"/>
			<path fill="#FFFFFF" d="M236.913,117.447c0.675,0.305,1.197,0.738,1.576,1.295c0.377,0.562,0.566,1.191,0.566,1.9
				c0,0.719-0.187,1.361-0.549,1.934c-0.366,0.57-0.896,1.016-1.584,1.332c-0.69,0.318-1.497,0.48-2.421,0.48
				c-1.021,0-1.932-0.205-2.729-0.613s-1.419-0.977-1.863-1.701c-0.44-0.725-0.666-1.545-0.666-2.457
				c0-1.68,0.453-3.018,1.359-4.014s1.975-1.701,3.204-2.115c1.229-0.414,2.469-0.662,3.718-0.746l0.323,3.006l-0.647,0.09
				c-0.889,0.119-1.633,0.27-2.229,0.441c-0.602,0.172-1.104,0.482-1.512,0.926c0.368-0.143,0.762-0.215,1.17-0.215
				C235.48,116.988,236.241,117.14,236.913,117.447z M235.295,121.353c0.252-0.258,0.378-0.58,0.378-0.963
				c0-0.373-0.145-0.682-0.423-0.918c-0.282-0.24-0.636-0.361-1.056-0.361c-0.469,0-0.973,0.193-1.513,0.576
				c0.036,0.609,0.207,1.104,0.513,1.482c0.31,0.379,0.711,0.566,1.215,0.566C234.747,121.74,235.043,121.611,235.295,121.353z"/>
		</g>
		<g enable-background="new    ">
			<path fill="#FFFFFF" d="M5.708,113.73c1.344,0,2.396,0.254,3.156,0.764c0.765,0.512,1.146,1.312,1.146,2.404
				c0,0.707-0.213,1.371-0.642,1.988c-0.426,0.615-1.089,1.305-1.986,2.061l-0.738,0.631H9.92l0.216,2.574H2v-1.908l3.399-2.953
				c0.084-0.082,0.225-0.193,0.414-0.342c0.432-0.371,0.753-0.68,0.963-0.926s0.315-0.496,0.315-0.748
				c0-0.287-0.132-0.504-0.396-0.648c-0.264-0.143-0.63-0.215-1.098-0.215c-0.48,0-0.99,0.096-1.53,0.287
				c-0.54,0.193-1.014,0.402-1.422,0.631l-0.414-2.664C3.278,114.043,4.435,113.73,5.708,113.73z"/>
			<path fill="#FFFFFF" d="M10.855,119.039c0-1.008,0.246-1.916,0.738-2.727c0.492-0.812,1.176-1.443,2.052-1.898
				c0.876-0.457,1.86-0.684,2.952-0.684s2.076,0.225,2.952,0.674c0.875,0.451,1.56,1.078,2.052,1.881
				c0.492,0.805,0.738,1.711,0.738,2.719c0,1.031-0.246,1.959-0.738,2.781s-1.176,1.465-2.052,1.926s-1.866,0.693-2.973,0.693
				c-1.092,0-2.07-0.232-2.94-0.693s-1.551-1.102-2.043-1.918C11.102,120.978,10.855,120.06,10.855,119.039z M14.24,118.986
				c0,0.803,0.225,1.463,0.666,1.979c0.444,0.518,1.008,0.773,1.692,0.773c0.684,0,1.248-0.252,1.692-0.756
				c0.441-0.504,0.663-1.146,0.663-1.926c0-0.781-0.222-1.42-0.663-1.918c-0.444-0.498-1.017-0.746-1.713-0.746
				c-0.672,0-1.229,0.242-1.674,0.729C14.461,117.609,14.24,118.23,14.24,118.986z"/>
		</g>
	</g>
</g>
</svg>
