<?xml version="1.0" encoding="utf-8"?>
<!-- Generator: Adobe Illustrator 16.0.0, SVG Export Plug-In . SVG Version: 6.00 Build 0)  -->
<!DOCTYPE svg PUBLIC "-//W3C//DTD SVG 1.1//EN" "http://www.w3.org/Graphics/SVG/1.1/DTD/svg11.dtd">
<svg version="1.1" id="Capa_1" xmlns="http://www.w3.org/2000/svg" xmlns:xlink="http://www.w3.org/1999/xlink" x="0px" y="0px"
	 width="240.846px" height="221.656px" viewBox="0 0 240.846 221.656" enable-background="new 0 0 240.846 221.656"
	 xml:space="preserve">
<g id="fondo" display="none">
	<rect x="-238.1" y="-99.348" display="inline" fill="#EA5B0C" width="798" height="958"/>
</g>
<g id="capa_2">
	<g id="Capa_5" display="none">
	</g>
	<g id="Capa_5_copia">
		<polygon display="none" fill="#FFFFFF" points="121.059,3.652 214.567,58.46 214.567,164.321 122.252,217.986 28.9,164.321 
			28.9,58.46 		"/>
		<g>
			<path d="M155.397,161.442c0.368,0.11,0.579,0.495,0.474,0.874l-0.469,1.507c-0.115,0.374-0.511,0.585-0.879,0.464l-10.323-3.155
				c-0.368-0.104-0.574-0.494-0.458-0.863l0.458-1.512c0.116-0.374,0.506-0.578,0.874-0.469L155.397,161.442z"/>
			<path d="M153.054,146.232c0.362,0.121,0.573,0.506,0.464,0.879l-3.155,10.318c-0.116,0.367-0.5,0.578-0.874,0.463l-1.507-0.458
				c-0.368-0.11-0.579-0.506-0.463-0.88l3.148-10.322c0.105-0.363,0.495-0.568,0.874-0.464L153.054,146.232z"/>
			<path d="M153.164,156.375c-0.368-0.116-0.579-0.506-0.463-0.885l0.458-1.501c0.121-0.369,0.5-0.585,0.879-0.464l10.312,3.148
				c0.379,0.116,0.585,0.507,0.464,0.881l-0.453,1.495c-0.116,0.374-0.511,0.579-0.885,0.475L153.164,156.375z"/>
			<path d="M162.012,141.47c0.368,0.11,0.573,0.495,0.464,0.875l-3.154,10.312c-0.111,0.379-0.506,0.59-0.869,0.469l-1.507-0.453
				c-0.368-0.12-0.59-0.512-0.474-0.88l3.153-10.322c0.111-0.368,0.495-0.579,0.869-0.464L162.012,141.47z"/>
			<path d="M169.454,136.241l1.512,0.464c0.368,0.11,0.579,0.5,0.47,0.874l-3.155,10.317c-0.062,0.185-0.179,0.332-0.337,0.416
				c-0.163,0.084-0.354,0.11-0.526,0.048l-1.517-0.464c-0.369-0.11-0.58-0.495-0.464-0.874l3.148-10.312
				c0.054-0.185,0.174-0.331,0.337-0.421C169.08,136.209,169.27,136.188,169.454,136.241"/>
			<path d="M172.44,154.764l-10.323-3.16c-0.363-0.11-0.579-0.511-0.463-0.874l0.469-1.512c0.053-0.186,0.185-0.326,0.332-0.411
				c0.157-0.084,0.354-0.11,0.531-0.054l10.328,3.149c0.363,0.116,0.579,0.506,0.464,0.88l-0.469,1.512
				c-0.048,0.18-0.181,0.326-0.332,0.416C172.819,154.791,172.63,154.817,172.44,154.764"/>
			<path d="M171.081,146.837c-0.379-0.109-0.579-0.5-0.469-0.868l0.464-1.513c0.11-0.373,0.506-0.579,0.874-0.469l10.317,3.155
				c0.369,0.109,0.58,0.506,0.469,0.874l-0.469,1.506c-0.105,0.375-0.495,0.585-0.869,0.464L171.081,146.837z"/>
			<path d="M179.924,131.938c0.374,0.109,0.574,0.506,0.459,0.869l-3.145,10.316c-0.11,0.379-0.506,0.585-0.869,0.47l-1.517-0.458
				c-0.363-0.116-0.579-0.512-0.464-0.874l3.154-10.323c0.11-0.368,0.489-0.579,0.863-0.469L179.924,131.938z"/>
			<path d="M190.357,145.226l-10.322-3.149c-0.374-0.116-0.58-0.506-0.464-0.88l0.464-1.506c0.058-0.189,0.179-0.343,0.348-0.422
				c0.168-0.101,0.349-0.115,0.548-0.059l10.312,3.155c0.374,0.104,0.585,0.5,0.464,0.874l-0.464,1.506
				c-0.053,0.189-0.179,0.332-0.342,0.416C190.736,145.257,190.536,145.279,190.357,145.226"/>
			<path d="M187.393,126.687l1.512,0.475c0.368,0.115,0.573,0.5,0.463,0.869l-3.148,10.322c-0.063,0.188-0.194,0.332-0.358,0.421
				c-0.147,0.09-0.348,0.109-0.537,0.048l-1.517-0.453c-0.363-0.115-0.574-0.506-0.458-0.874l3.145-10.316
				c0.062-0.195,0.189-0.338,0.357-0.416C187.013,126.667,187.197,126.645,187.393,126.687"/>
			<path d="M189.009,137.299c-0.362-0.12-0.578-0.511-0.463-0.879l0.47-1.507c0.109-0.379,0.5-0.574,0.862-0.469l10.328,3.149
				c0.363,0.115,0.574,0.506,0.458,0.88l-0.458,1.506c-0.116,0.374-0.506,0.58-0.874,0.464L189.009,137.299z"/>
			<path d="M197.857,122.39c0.374,0.109,0.579,0.505,0.469,0.874l-3.155,10.321c-0.121,0.369-0.5,0.579-0.874,0.464l-1.506-0.459
				c-0.38-0.12-0.58-0.51-0.469-0.874l3.154-10.316c0.109-0.373,0.506-0.584,0.862-0.474L197.857,122.39z"/>
			<path d="M88.643,160.715c-0.369,0.09-0.597,0.47-0.495,0.849l0.392,1.526c0.099,0.374,0.473,0.596,0.854,0.501l10.443-2.696
				c0.374-0.101,0.593-0.479,0.5-0.858l-0.393-1.521c-0.098-0.379-0.472-0.605-0.854-0.506L88.643,160.715z"/>
			<path d="M91.642,145.621c-0.368,0.096-0.594,0.479-0.5,0.854l2.698,10.448c0.104,0.374,0.484,0.602,0.854,0.507l1.53-0.4
				c0.376-0.095,0.603-0.475,0.506-0.854l-2.705-10.454c-0.092-0.369-0.475-0.591-0.854-0.495L91.642,145.621z"/>
			<path d="M91.094,155.744c0.37-0.101,0.604-0.479,0.506-0.854l-0.396-1.532c-0.103-0.363-0.48-0.602-0.853-0.495l-10.447,2.701
				c-0.379,0.096-0.605,0.479-0.5,0.843l0.393,1.527c0.101,0.385,0.475,0.605,0.855,0.506L91.094,155.744z"/>
			<path d="M82.901,140.47c-0.371,0.1-0.604,0.479-0.508,0.848l2.704,10.46c0.103,0.368,0.477,0.595,0.854,0.489l1.529-0.385
				c0.38-0.095,0.605-0.484,0.506-0.857l-2.699-10.455c-0.092-0.363-0.48-0.595-0.854-0.494L82.901,140.47z"/>
			<path d="M75.684,134.919l-1.521,0.4c-0.377,0.1-0.604,0.479-0.508,0.856l2.707,10.449c0.045,0.181,0.163,0.332,0.321,0.422
				c0.154,0.101,0.342,0.121,0.522,0.073l1.538-0.39c0.374-0.101,0.593-0.484,0.495-0.858l-2.694-10.442
				c-0.05-0.195-0.168-0.344-0.325-0.434C76.068,134.909,75.876,134.882,75.684,134.919"/>
			<path d="M71.904,153.29l10.447-2.69c0.373-0.102,0.598-0.49,0.511-0.854l-0.403-1.532c-0.05-0.188-0.166-0.338-0.32-0.427
				c-0.158-0.09-0.346-0.126-0.534-0.079l-10.444,2.702c-0.374,0.1-0.598,0.474-0.503,0.854l0.4,1.526
				c0.045,0.195,0.166,0.338,0.312,0.438C71.522,153.305,71.715,153.336,71.904,153.29"/>
			<path d="M73.613,145.442c0.372-0.095,0.596-0.479,0.498-0.854l-0.4-1.526c-0.087-0.379-0.469-0.602-0.848-0.505l-10.443,2.7
				c-0.383,0.096-0.604,0.484-0.509,0.854l0.405,1.521c0.093,0.386,0.475,0.602,0.851,0.513L73.613,145.442z"/>
			<path d="M65.414,130.168c-0.369,0.102-0.588,0.479-0.498,0.858l2.701,10.443c0.096,0.38,0.478,0.596,0.849,0.501l1.535-0.396
				c0.376-0.1,0.602-0.484,0.505-0.853l-2.703-10.444c-0.096-0.379-0.473-0.6-0.852-0.506L65.414,130.168z"/>
			<path d="M54.417,142.993l10.454-2.696c0.366-0.109,0.602-0.479,0.503-0.857l-0.396-1.527c-0.056-0.188-0.18-0.348-0.339-0.432
				c-0.15-0.102-0.341-0.127-0.543-0.085l-10.446,2.707c-0.363,0.085-0.602,0.475-0.495,0.849l0.393,1.527
				c0.054,0.188,0.175,0.342,0.334,0.427C54.037,143.003,54.232,143.035,54.417,142.993"/>
			<path d="M58.19,124.607l-1.532,0.399c-0.374,0.096-0.593,0.475-0.501,0.854l2.702,10.449c0.047,0.188,0.171,0.336,0.334,0.432
				c0.158,0.089,0.346,0.126,0.537,0.078l1.526-0.389c0.374-0.102,0.599-0.49,0.507-0.854l-2.704-10.455
				c-0.048-0.188-0.178-0.342-0.332-0.426C58.569,124.601,58.377,124.565,58.19,124.607"/>
			<path d="M56.107,135.129c0.374-0.1,0.598-0.483,0.503-0.853l-0.396-1.527c-0.092-0.369-0.479-0.601-0.857-0.512l-10.443,2.702
				c-0.371,0.104-0.598,0.483-0.506,0.854l0.405,1.538c0.09,0.363,0.472,0.596,0.843,0.5L56.107,135.129z"/>
			<path d="M47.92,119.857c-0.379,0.089-0.6,0.483-0.505,0.853l2.701,10.444c0.087,0.384,0.475,0.604,0.854,0.511l1.526-0.399
				c0.376-0.105,0.602-0.484,0.503-0.854l-2.702-10.449c-0.1-0.367-0.48-0.601-0.848-0.5L47.92,119.857z"/>
		</g>
		<g>
			<g>
				<defs>
					<polygon id="SVGID_1_" points="34.538,55.493 23.151,97.958 109.172,150.629 136.563,150.629 218.966,99.522 196.894,54.428 
											"/>
				</defs>
				<clipPath id="SVGID_2_">
					<use xlink:href="#SVGID_1_"  overflow="visible"/>
				</clipPath>
				<path clip-path="url(#SVGID_2_)" d="M112.824,183.146c34.236,4.419,65.704-19.871,70.107-54.12
					c4.413-34.255-19.866-65.733-54.11-70.143C94.556,54.465,63.088,78.76,58.677,113.03
					C54.262,147.275,78.546,178.727,112.824,183.146 M64.129,137.611l53.754-14.637l-39.146,39.441
					C71.971,155.506,66.898,147,64.129,137.611 M80.031,163.665l39.11-39.416l-14.145,53.631
					C95.402,175.208,86.923,170.253,80.031,163.665 M113.271,179.612c-2.238-0.284-4.421-0.711-6.535-1.243l14.125-53.667
					l14.586,53.504C128.379,180.012,120.9,180.597,113.271,179.612 M137.164,177.763l-14.6-53.541l39.411,39.078
					C155.061,170.042,146.549,175.062,137.164,177.763 M163.224,162.032l-39.371-39.068l53.728,14.162
					C174.873,146.701,169.849,155.191,163.224,162.032 M179.397,128.578c-0.3,2.328-0.759,4.604-1.327,6.836l-53.775-14.156
					l53.738-14.656C179.824,113.579,180.372,121,179.397,128.578 M177.623,104.868l-53.802,14.646l39.297-39.621
					C169.901,86.834,174.926,95.429,177.623,104.868 M161.859,78.655l-39.284,39.584l14.246-54.021
					C146.46,66.926,154.992,71.977,161.859,78.655 M128.369,62.413c2.285,0.307,4.534,0.759,6.735,1.322l-14.275,54.078
					l-14.692-53.979C113.203,62.002,120.682,61.428,128.369,62.413 M104.427,64.277l14.688,54.005L79.46,78.94
					C86.406,72.104,94.954,67.021,104.427,64.277 M78.214,80.209l39.647,39.336l-53.946-14.24
					C66.569,95.656,71.562,87.114,78.214,80.209 M117.411,121.268l-53.743,14.631c-1.849-7.132-2.452-14.685-1.459-22.415
					c0.289-2.212,0.711-4.355,1.209-6.452L117.411,121.268z"/>
			</g>
		</g>
		<g>
			<path d="M49.696,112.447c0.058-1.223,1.751-30.39,31.429-50.261l2.799,4.182c-27.493,18.396-29.191,46.046-29.206,46.326
				L49.696,112.447z"/>
			<path d="M185.5,115.048c0-0.278-0.801-27.961-27.691-47.248l2.928-4.08c29.03,20.812,29.778,50.018,29.799,51.243L185.5,115.048z
				"/>
			<path d="M122.405,221.656l-96.057-55.284L26.193,55.55L122.1,0l96.054,55.276l0.158,110.833L122.405,221.656z M32.405,162.864
				l89.989,51.793l89.85-52.035L212.097,58.79l-89.99-51.793L32.257,59.032L32.405,162.864z"/>
		</g>
	</g>
	<g id="Capa_6_copia">
		<g>
			<g>
				<g>
					<path d="M88.945,61.637c1.161-0.64,1.748-0.941,2.931-1.52c0.319,0.478,0.479,0.715,0.794,1.193
						c-1.958,0.947-2.923,1.465-4.816,2.585c-1.375-2.327-2.063-3.489-3.438-5.815c0.779-0.46,1.17-0.684,1.96-1.118
						C87.402,58.833,87.917,59.768,88.945,61.637z"/>
					<path d="M94.05,53.161c0.816-0.33,1.584-0.459,2.292-0.396s1.309,0.295,1.8,0.686c0.49,0.391,0.836,0.897,1.043,1.512
						c0.22,0.653,0.254,1.29,0.114,1.909c-0.139,0.619-0.438,1.169-0.887,1.657c-0.451,0.488-1.021,0.868-1.723,1.152
						c-0.724,0.293-1.41,0.419-2.075,0.376s-1.258-0.23-1.778-0.572c-0.52-0.342-0.922-0.802-1.2-1.389
						c-0.294-0.616-0.398-1.244-0.301-1.886c0.1-0.641,0.384-1.234,0.855-1.772C92.663,53.9,93.286,53.47,94.05,53.161z
						 M93.616,57.181c0.233,0.533,0.579,0.902,1.028,1.112c0.45,0.21,0.935,0.205,1.465-0.01c0.509-0.206,0.863-0.533,1.065-0.989
						c0.203-0.456,0.194-0.991-0.034-1.605c-0.201-0.54-0.528-0.922-0.987-1.142c-0.459-0.218-0.968-0.218-1.516,0.005
						c-0.341,0.138-0.617,0.343-0.827,0.613c-0.209,0.272-0.334,0.585-0.375,0.938C93.396,56.458,93.457,56.816,93.616,57.181z"/>
					<path d="M100.805,57.587c0.084-0.6,0.129-0.899,0.224-1.501c0.226,0.04,0.521,0.051,0.888,0.034
						c0.366-0.017,0.678-0.062,0.936-0.135c0.287-0.082,0.501-0.198,0.645-0.352c0.145-0.152,0.2-0.293,0.166-0.421
						c-0.021-0.083-0.106-0.146-0.256-0.192s-0.386-0.103-0.712-0.168c-0.155-0.03-0.233-0.045-0.389-0.075
						c-0.57-0.111-1.023-0.203-1.354-0.285s-0.648-0.218-0.957-0.411c-0.307-0.193-0.517-0.458-0.625-0.791
						c-0.115-0.353-0.099-0.708,0.051-1.064c0.15-0.357,0.419-0.684,0.811-0.976s0.884-0.523,1.475-0.689
						c0.404-0.113,0.832-0.18,1.282-0.194c0.449-0.015,0.846,0.028,1.19,0.122c-0.137,0.536-0.2,0.803-0.327,1.34
						c-0.434-0.013-0.766-0.008-0.993,0.012c-0.228,0.021-0.471,0.065-0.73,0.138c-0.229,0.063-0.399,0.163-0.515,0.292
						c-0.115,0.13-0.153,0.258-0.116,0.385c0.028,0.095,0.111,0.162,0.249,0.201s0.359,0.081,0.664,0.127
						c0.185,0.031,0.274,0.049,0.457,0.081c0.535,0.101,0.982,0.21,1.345,0.326c0.362,0.115,0.687,0.282,0.969,0.498
						c0.281,0.215,0.462,0.49,0.541,0.825c0.088,0.374,0.047,0.734-0.12,1.08c-0.167,0.348-0.447,0.658-0.839,0.938
						c-0.393,0.28-0.873,0.498-1.449,0.662c-0.372,0.105-0.802,0.177-1.291,0.216C101.531,57.648,101.126,57.643,100.805,57.587z"/>
					<path d="M114.152,51.857c-0.367,0.534-0.546,0.802-0.897,1.34c-0.32,0.078-0.479,0.117-0.799,0.199
						c-0.558-0.464-0.842-0.692-1.418-1.146c0.194,1.293,0.291,1.939,0.485,3.231c-0.784,0.117-1.175,0.181-1.956,0.323
						c-0.482-2.658-0.721-3.987-1.203-6.646c0.592-0.106,0.888-0.159,1.481-0.253c1.135,0.861,1.685,1.305,2.754,2.208
						c0.735-1.129,1.121-1.69,1.922-2.799c0.577-0.054,0.866-0.078,1.443-0.121c0.198,2.695,0.297,4.043,0.493,6.737
						c-0.789,0.058-1.182,0.091-1.969,0.172C114.354,53.806,114.288,53.158,114.152,51.857z"/>
					<path d="M121.48,47.864c0.862,0.002,1.61,0.172,2.231,0.498s1.083,0.767,1.387,1.312c0.303,0.548,0.429,1.146,0.389,1.793
						c-0.042,0.688-0.249,1.289-0.607,1.811c-0.357,0.521-0.833,0.919-1.425,1.201s-1.253,0.419-1.996,0.417
						c-0.765-0.002-1.435-0.146-2.021-0.438c-0.586-0.292-1.053-0.689-1.396-1.204c-0.343-0.514-0.539-1.092-0.574-1.739
						c-0.037-0.682,0.102-1.303,0.427-1.858c0.324-0.556,0.8-0.998,1.427-1.316C119.947,48.022,120.672,47.862,121.48,47.864z
						 M119.6,51.42c0.014,0.583,0.189,1.056,0.52,1.42c0.331,0.365,0.771,0.546,1.333,0.548c0.539,0.001,0.982-0.168,1.336-0.516
						c0.354-0.346,0.545-0.846,0.565-1.501c0.017-0.576-0.14-1.052-0.477-1.427s-0.798-0.568-1.378-0.57
						c-0.359-0.001-0.688,0.084-0.979,0.256c-0.291,0.173-0.521,0.415-0.688,0.728C119.667,50.668,119.59,51.022,119.6,51.42z"/>
					<path d="M128.593,53.737c1.275,0.14,1.91,0.225,3.18,0.426c-0.016,0.573-0.021,0.861-0.038,1.434
						c-2.097-0.339-3.153-0.466-5.266-0.634c0.216-2.691,0.323-4.039,0.536-6.732c0.869,0.068,1.303,0.108,2.169,0.205
						C128.942,50.556,128.826,51.617,128.593,53.737z"/>
					<path d="M136.021,49.519c-0.548,2.646-0.826,3.969-1.378,6.612c-0.777-0.161-1.165-0.236-1.945-0.375
						c0.472-2.659,0.707-3.988,1.175-6.65C134.733,49.258,135.165,49.341,136.021,49.519z"/>
					<path d="M139.196,53.562c-0.368,1.374-0.552,2.061-0.921,3.434c-0.77-0.206-1.154-0.304-1.928-0.485
						c0.622-2.629,0.934-3.943,1.552-6.574c0.792,0.187,1.186,0.285,1.974,0.495c0.847,1.741,1.234,2.618,1.944,4.377
						c0.438-1.399,0.658-2.099,1.095-3.498c0.84,0.263,1.26,0.401,2.093,0.69c-0.884,2.554-1.331,3.829-2.218,6.38
						c-0.706-0.244-1.06-0.361-1.771-0.586C140.354,56.095,139.99,55.247,139.196,53.562z"/>
					<path d="M150.275,53.912c0.807,0.353,1.439,0.812,1.893,1.364s0.71,1.145,0.777,1.771s-0.051,1.227-0.345,1.805
						c-0.312,0.613-0.744,1.083-1.288,1.415s-1.146,0.502-1.812,0.521c-0.666,0.02-1.342-0.126-2.035-0.429
						c-0.715-0.312-1.281-0.713-1.713-1.216c-0.431-0.503-0.71-1.057-0.824-1.665c-0.116-0.61-0.067-1.222,0.155-1.831
						c0.235-0.642,0.611-1.155,1.135-1.535c0.523-0.379,1.141-0.593,1.852-0.633C148.779,53.438,149.521,53.583,150.275,53.912z
						 M147.106,56.415c-0.218,0.54-0.24,1.046-0.077,1.516c0.163,0.469,0.505,0.812,1.029,1.041c0.504,0.22,0.984,0.241,1.454,0.067
						c0.469-0.173,0.848-0.555,1.126-1.147c0.244-0.521,0.284-1.023,0.117-1.505s-0.521-0.847-1.062-1.082
						c-0.336-0.147-0.677-0.199-1.017-0.158s-0.649,0.17-0.931,0.389C147.47,55.753,147.255,56.046,147.106,56.415z"/>
					<path d="M151.866,61.848c0.49-0.358,0.74-0.533,1.239-0.884c0.132,0.191,0.333,0.41,0.605,0.664
						c0.273,0.253,0.53,0.448,0.77,0.584c0.265,0.151,0.502,0.227,0.716,0.226c0.213-0.002,0.354-0.06,0.422-0.173
						c0.044-0.074,0.027-0.183-0.047-0.321s-0.203-0.352-0.39-0.634c-0.091-0.135-0.135-0.201-0.225-0.334
						c-0.328-0.49-0.585-0.882-0.762-1.179c-0.177-0.295-0.308-0.622-0.387-0.979c-0.079-0.357-0.039-0.691,0.123-1.002
						c0.172-0.329,0.436-0.567,0.799-0.708s0.794-0.173,1.283-0.094c0.488,0.079,1.008,0.274,1.55,0.588
						c0.372,0.215,0.725,0.48,1.061,0.8c0.334,0.317,0.591,0.634,0.771,0.95c-0.485,0.272-0.728,0.412-1.205,0.691
						c-0.303-0.324-0.545-0.562-0.724-0.714c-0.178-0.151-0.388-0.296-0.625-0.434c-0.21-0.122-0.4-0.179-0.575-0.171
						c-0.178,0.007-0.3,0.066-0.363,0.183c-0.049,0.086-0.036,0.195,0.034,0.322c0.069,0.127,0.199,0.316,0.384,0.569
						c0.109,0.155,0.164,0.232,0.271,0.389c0.312,0.458,0.556,0.86,0.732,1.207c0.177,0.344,0.288,0.696,0.338,1.053
						s-0.02,0.678-0.204,0.968c-0.206,0.324-0.496,0.545-0.866,0.664s-0.798,0.129-1.281,0.038
						c-0.482-0.091-0.986-0.289-1.519-0.593c-0.343-0.196-0.701-0.458-1.079-0.785C152.338,62.415,152.054,62.118,151.866,61.848z"
						/>
				</g>
			</g>
			<g enable-background="new    ">
				<path d="M116.319,158.568l-1.104,1.488l-0.876,0.12l-1.32-1.608v3.948h-2.184v-8.16h1.5l2.46,3.108l2.256-3.108h1.452v8.16
					h-2.184V158.568z"/>
				<path d="M119.583,154.356h6.984l0.203,1.716h-2.604v6.444h-2.184v-6.444h-2.4V154.356z"/>
				<path d="M130.934,162.516h-3.084v-8.16h2.844c0.969,0,1.771,0.196,2.406,0.588c0.637,0.393,0.954,0.98,0.954,1.765
					c0,0.288-0.068,0.548-0.204,0.779c-0.137,0.232-0.32,0.465-0.552,0.696c0.336,0.232,0.602,0.512,0.798,0.84
					c0.195,0.328,0.294,0.681,0.294,1.057c0,0.863-0.326,1.485-0.978,1.865C132.76,162.327,131.934,162.516,130.934,162.516z
					 M130.622,156.072h-0.588v1.38h0.492c0.36,0,0.662-0.054,0.906-0.161c0.244-0.108,0.366-0.267,0.366-0.475
					c0-0.24-0.104-0.424-0.312-0.552C131.278,156.136,130.991,156.072,130.622,156.072z M130.958,159.169h-0.924v1.632h0.948
					c0.353,0,0.632-0.066,0.841-0.198c0.207-0.132,0.312-0.322,0.312-0.57c0-0.271-0.104-0.483-0.312-0.636
					C131.614,159.245,131.327,159.169,130.958,159.169z"/>
			</g>
			<g enable-background="new    ">
				<path d="M113.787,164.873l-0.648,1.476c-0.424-0.144-0.75-0.24-0.978-0.288c-0.228-0.048-0.478-0.072-0.75-0.072
					c-0.328,0-0.642,0.104-0.942,0.312c-0.3,0.208-0.544,0.5-0.732,0.876s-0.282,0.804-0.282,1.284c0,0.487,0.096,0.916,0.288,1.283
					c0.192,0.368,0.446,0.65,0.762,0.847s0.646,0.294,0.99,0.294c0.536,0,1.052-0.148,1.548-0.444l0.828,1.632
					c-0.312,0.185-0.69,0.33-1.134,0.438c-0.444,0.107-0.878,0.162-1.302,0.162c-0.864,0-1.616-0.178-2.256-0.534
					c-0.64-0.355-1.13-0.85-1.47-1.482c-0.34-0.632-0.51-1.359-0.51-2.184s0.18-1.56,0.54-2.208s0.858-1.154,1.494-1.518
					c0.636-0.364,1.354-0.547,2.154-0.547c0.416,0,0.842,0.061,1.278,0.181C113.1,164.501,113.475,164.665,113.787,164.873z"/>
				<path d="M117.135,170.801h3.468l0.204,1.716h-5.856v-8.16h2.184V170.801z"/>
				<path d="M121.766,164.356h2.184v4.933c0,0.496,0.137,0.882,0.408,1.157c0.272,0.276,0.629,0.414,1.068,0.414
					s0.796-0.138,1.068-0.414c0.271-0.275,0.408-0.661,0.408-1.157v-4.933h2.184v5.04c0,0.696-0.152,1.29-0.456,1.782
					s-0.731,0.866-1.284,1.122c-0.552,0.256-1.191,0.384-1.92,0.384s-1.368-0.128-1.92-0.384c-0.553-0.256-0.98-0.63-1.284-1.122
					s-0.456-1.086-0.456-1.782V164.356z"/>
				<path d="M133.97,172.516h-3.084v-8.16h2.845c0.967,0,1.77,0.196,2.405,0.588c0.636,0.393,0.954,0.98,0.954,1.765
					c0,0.288-0.068,0.548-0.204,0.779c-0.136,0.232-0.319,0.465-0.552,0.696c0.336,0.232,0.602,0.512,0.798,0.84
					s0.294,0.681,0.294,1.057c0,0.863-0.326,1.485-0.979,1.865C135.797,172.327,134.97,172.516,133.97,172.516z M133.659,166.072
					h-0.588v1.38h0.492c0.359,0,0.661-0.054,0.905-0.161c0.244-0.108,0.366-0.267,0.366-0.475c0-0.24-0.104-0.424-0.312-0.552
					S134.026,166.072,133.659,166.072z M133.995,169.169h-0.924v1.632h0.947c0.352,0,0.632-0.066,0.84-0.198
					c0.209-0.132,0.312-0.322,0.312-0.57c0-0.271-0.104-0.483-0.312-0.636C134.65,169.245,134.362,169.169,133.995,169.169z"/>
			</g>
			<g enable-background="new    ">
				<path d="M227.257,113.964v10.188h-3.275v-6.534l-2.088,0.9l-1.278-2.628l4.464-1.927H227.257z"/>
				<path d="M236.364,117.447c0.672,0.306,1.197,0.738,1.576,1.296c0.377,0.559,0.566,1.191,0.566,1.899
					c0,0.72-0.184,1.365-0.549,1.935c-0.366,0.57-0.895,1.015-1.584,1.332c-0.69,0.318-1.497,0.478-2.421,0.478
					c-1.021,0-1.929-0.204-2.728-0.612c-0.798-0.408-1.419-0.975-1.863-1.701c-0.443-0.726-0.666-1.545-0.666-2.457
					c0-1.68,0.453-3.018,1.359-4.014s1.975-1.701,3.204-2.115s2.469-0.663,3.718-0.747l0.323,3.006l-0.647,0.09
					c-0.889,0.12-1.633,0.268-2.232,0.441s-1.104,0.483-1.512,0.927c0.371-0.144,0.762-0.216,1.17-0.216
					C234.93,116.988,235.692,117.141,236.364,117.447z M234.745,121.353c0.252-0.258,0.378-0.579,0.378-0.963
					c0-0.372-0.142-0.678-0.423-0.918c-0.282-0.24-0.633-0.36-1.053-0.36c-0.469,0-0.973,0.192-1.513,0.576
					c0.036,0.612,0.207,1.106,0.513,1.485c0.307,0.378,0.711,0.566,1.215,0.566C234.198,121.74,234.493,121.611,234.745,121.353z"/>
			</g>
			<g enable-background="new    ">
				<path d="M5.158,113.73c1.344,0,2.396,0.255,3.159,0.765c0.762,0.511,1.143,1.312,1.143,2.403c0,0.708-0.213,1.371-0.639,1.989
					s-1.089,1.305-1.989,2.061l-0.738,0.63H9.37l0.216,2.574H1.45v-1.908l3.402-2.952c0.084-0.083,0.222-0.197,0.414-0.342
					c0.432-0.372,0.753-0.681,0.963-0.927s0.315-0.495,0.315-0.747c0-0.288-0.132-0.504-0.396-0.648
					c-0.264-0.144-0.63-0.216-1.098-0.216c-0.48,0-0.99,0.097-1.53,0.288c-0.54,0.192-1.014,0.402-1.422,0.63l-0.414-2.664
					C2.728,114.043,3.885,113.73,5.158,113.73z"/>
				<path d="M10.305,119.04c0-1.008,0.246-1.917,0.738-2.727c0.492-0.811,1.176-1.443,2.052-1.899s1.86-0.684,2.952-0.684
					c1.092,0,2.076,0.225,2.952,0.675c0.875,0.45,1.56,1.077,2.052,1.881c0.492,0.805,0.738,1.71,0.738,2.718
					c0,1.032-0.246,1.96-0.738,2.781c-0.492,0.822-1.176,1.465-2.052,1.926c-0.876,0.462-1.866,0.693-2.97,0.693
					c-1.092,0-2.073-0.231-2.943-0.693c-0.87-0.461-1.551-1.101-2.043-1.917C10.552,120.978,10.305,120.06,10.305,119.04z
					 M13.69,118.986c0,0.804,0.222,1.464,0.666,1.98c0.444,0.516,1.008,0.773,1.692,0.773s1.248-0.252,1.692-0.756
					s0.666-1.146,0.666-1.926s-0.222-1.419-0.666-1.917s-1.014-0.747-1.71-0.747c-0.672,0-1.23,0.243-1.674,0.729
					C13.911,117.609,13.69,118.23,13.69,118.986z"/>
			</g>
		</g>
	</g>
</g>
</svg>
